<?xml version="1.0" standalone="no"?>
<!DOCTYPE svg PUBLIC "-//W3C//DTD SVG 20010904//EN"
 "http://www.w3.org/TR/2001/REC-SVG-20010904/DTD/svg10.dtd">
<svg version="1.0" xmlns="http://www.w3.org/2000/svg"
 width="500.000000pt" height="500.000000pt" viewBox="0 0 500.000000 500.000000"
 preserveAspectRatio="xMidYMid meet">

<g transform="translate(0.000000,500.000000) scale(0.100000,-0.100000)"
fill="#000000" stroke="none">
<path d="M3174 4250 c-51 -26 -69 -44 -135 -132 -42 -57 -116 -157 -165 -223
-88 -118 -175 -213 -325 -351 l-77 -70 -122 -248 c-67 -136 -125 -266 -127
-287 -5 -34 -9 -39 -32 -39 -18 0 -34 10 -49 29 -12 17 -34 36 -49 43 -18 8
-51 52 -94 121 -72 117 -184 264 -226 297 -34 27 -101 27 -136 0 -14 -11 -58
-68 -98 -127 -203 -301 -232 -333 -297 -333 -34 0 -100 -58 -138 -122 -39 -66
-360 -699 -433 -853 -47 -99 -56 -116 -87 -160 -12 -17 -68 -120 -124 -230
-215 -418 -274 -519 -377 -646 -29 -36 -53 -71 -53 -78 0 -6 -7 -11 -15 -11
-8 0 -15 -7 -15 -15 0 -21 23 -19 53 5 14 11 28 20 30 20 7 0 172 154 237 221
56 58 66 70 74 97 4 12 12 22 17 22 5 0 9 4 9 10 0 5 20 40 44 77 73 114 596
1049 596 1066 0 9 8 22 19 29 10 7 21 23 25 36 8 25 21 28 42 8 21 -22 17 -53
-20 -146 -58 -149 -309 -634 -341 -660 -8 -7 -15 -20 -15 -30 0 -10 -7 -23
-15 -30 -8 -7 -15 -19 -15 -26 0 -8 -5 -14 -12 -14 -9 0 -9 -3 0 -12 9 -9 19
-7 42 10 16 12 40 22 53 22 33 0 65 31 132 130 32 47 70 96 84 110 14 14 38
41 53 60 l27 35 1 -36 c0 -20 -7 -56 -15 -79 -16 -46 -20 -90 -7 -90 16 0 32
24 32 48 0 14 8 39 19 56 10 17 55 148 100 291 113 360 177 547 207 611 49
105 101 146 211 169 96 20 129 8 221 -79 98 -93 125 -147 125 -245 -1 -68 -4
-81 -51 -175 -75 -150 -216 -399 -279 -495 -63 -95 -136 -172 -238 -252 -102
-81 -334 -246 -487 -346 -133 -88 -218 -161 -218 -189 0 -18 34 -18 49 0 17
21 96 60 224 113 234 95 345 161 497 296 152 134 306 326 449 557 159 256 259
465 421 880 173 444 186 472 226 498 23 14 51 22 80 22 l44 0 0 -49 c0 -102
-115 -387 -235 -582 -141 -229 -245 -493 -245 -623 0 -48 3 -56 18 -56 31 0
49 32 54 92 7 85 92 247 277 526 219 328 236 365 332 711 33 119 67 226 75
238 8 12 14 29 14 38 0 18 29 19 51 2 9 -7 33 -62 53 -122 47 -139 71 -176
133 -204 71 -33 113 -64 113 -83 0 -9 -16 -26 -35 -38 -60 -37 -72 -82 -29
-113 24 -18 31 -18 177 -3 196 21 220 24 291 39 l58 13 -33 25 c-19 14 -51 31
-71 38 -54 18 -85 46 -134 122 -40 63 -49 70 -121 104 -43 20 -84 40 -92 44
-23 12 -39 74 -55 204 -7 67 -12 124 -11 125 3 4 59 -34 80 -53 6 -5 34 -44
63 -86 65 -98 117 -142 206 -175 88 -33 183 -87 306 -174 131 -93 238 -153
350 -196 52 -20 127 -54 165 -77 101 -58 359 -228 363 -238 10 -26 126 1 143
33 11 20 0 37 -23 38 -3 0 -30 22 -60 48 -29 27 -154 111 -278 187 -487 299
-578 371 -734 576 -145 189 -224 279 -298 337 -40 31 -98 76 -128 101 -65 53
-163 101 -206 101 -17 0 -57 -13 -90 -30z"/>
</g>
</svg>
